<svg xmlns="http://www.w3.org/2000/svg" viewBox="0 0 406.23 537.42"><defs><style>.cls-1{fill:#171716;}</style></defs><title>Asset 7</title><g id="Layer_2" data-name="Layer 2"><g id="Crop_Marks" data-name="Crop Marks"><path class="cls-1" d="M390.5,343.26q15.72-29.85,15.73-65.79V249.23H349.11v28.24a86.77,86.77,0,0,1-53,80.55,84.71,84.71,0,0,1-33.69,6.74,140.77,140.77,0,0,0-46.54,7.7,146.94,146.94,0,0,0-40.75,21.83V315a162.21,162.21,0,0,0,42-10.62,154.18,154.18,0,0,0,52.43-34.84l21.82-21.82L247.74,203.4l-22.52,21.82a86.71,86.71,0,0,1-31,21.12,98.24,98.24,0,0,1-19.08,5.48V133.7H118V245a96.77,96.77,0,0,1-27.95-19.79A93.6,93.6,0,0,1,69,193.55a95.15,95.15,0,0,1,0-71.79,86.8,86.8,0,0,1,21.12-31,93.72,93.72,0,0,1,31.67-21.11,95,95,0,0,1,71.79,0,93.91,93.91,0,0,1,31.67,21.11l22.52,21.82,43.64-44.34L269.56,46.45a154.47,154.47,0,0,0-52.43-34.84,158.14,158.14,0,0,0-118.95,0A154.37,154.37,0,0,0,45.75,46.45,150.64,150.64,0,0,0,11.26,98.53a162.7,162.7,0,0,0,0,119,150.46,150.46,0,0,0,34.49,52.08A154.08,154.08,0,0,0,98.18,304.4,167.39,167.39,0,0,0,118,310.91V537.42h57.13V508.53a84.54,84.54,0,0,1,6.74-33.69,87.2,87.2,0,0,1,18.61-27.6,87.47,87.47,0,0,1,61.94-25.36,84.71,84.71,0,0,1,33.69,6.74,87.28,87.28,0,0,1,46.22,46.22,84.71,84.71,0,0,1,6.74,33.69v28.89h57.12V508.53a139.56,139.56,0,0,0-15.73-65.46A144.34,144.34,0,0,0,347.82,393,145.05,145.05,0,0,0,390.5,343.26Z"/></g></g></svg>