<svg xmlns="http://www.w3.org/2000/svg" viewBox="0 0 720 720"><defs><style>.cls-1{fill:#fff;}.cls-2{fill:#171716;}</style></defs><title>Asset 5</title><g id="Layer_2" data-name="Layer 2"><g id="Crop_Marks" data-name="Crop Marks"><rect class="cls-1" width="720" height="720"/><path class="cls-2" d="M547.39,434.55q15.72-29.85,15.72-65.79V340.52H506v28.24A86.75,86.75,0,0,1,453,449.31a84.55,84.55,0,0,1-33.7,6.74,140.72,140.72,0,0,0-46.53,7.7,147.14,147.14,0,0,0-40.76,21.83V406.31a162.21,162.21,0,0,0,42-10.62,154.22,154.22,0,0,0,52.44-34.84L448.27,339,404.63,294.7l-22.52,21.81a86.67,86.67,0,0,1-31,21.12,97.44,97.44,0,0,1-19.09,5.48V225H274.93V336.3a96.48,96.48,0,0,1-28-19.79,93.33,93.33,0,0,1-21.11-31.67,95,95,0,0,1,0-71.79,86.64,86.64,0,0,1,21.11-31A93.9,93.9,0,0,1,278.65,161a95,95,0,0,1,71.79,0,94.06,94.06,0,0,1,31.67,21.11l22.52,21.82,43.64-44.34-21.82-21.82A154.51,154.51,0,0,0,374,102.9a158.12,158.12,0,0,0-118.94,0,154.41,154.41,0,0,0-52.44,34.84,150.7,150.7,0,0,0-34.48,52.09,162.68,162.68,0,0,0,0,118.94,150.48,150.48,0,0,0,34.48,52.08,154.12,154.12,0,0,0,52.44,34.84,169.3,169.3,0,0,0,19.86,6.52v226.5h57.12V599.83a84.72,84.72,0,0,1,6.74-33.7,87.1,87.1,0,0,1,80.55-53,84.55,84.55,0,0,1,33.7,6.74,87.16,87.16,0,0,1,46.21,46.21,84.72,84.72,0,0,1,6.74,33.7v28.88h57.12V599.83a139.59,139.59,0,0,0-15.72-65.47,144.34,144.34,0,0,0-42.68-50.07A145,145,0,0,0,547.39,434.55Z"/></g></g></svg>