<?xml version="1.0" encoding="utf-8"?>
<svg viewBox="0 0 500 500" xmlns="http://www.w3.org/2000/svg">
  <g id="Layer_2" data-name="Layer 2" transform="matrix(1.247451, 0, 0, 0.928871, -0.519186, 0.403166)" style="">
    <g id="Crop_Marks" data-name="Crop Marks">
      <path class="cls-1" d="M392.53,327.12H119c-5,0-9.12,10.47-9.12,23.37S114,373.85,119,373.85H392.53c5,0,9.12-10.46,9.12-23.36S397.56,327.12,392.53,327.12Z" style="fill: rgb(23, 23, 22);"/>
      <path class="cls-1" d="M392.52,490.68H210c-5,0-9.13,10.47-9.13,23.37s4.09,23.37,9.13,23.37H392.52c5,0,9.13-10.47,9.13-23.37S397.56,490.68,392.52,490.68Z" style="fill: rgb(23, 23, 22);"/>
      <path class="cls-1" d="M12.55,46.73H389.1c6.93,0,12.55-10.47,12.55-23.36S396,0,389.1,0H12.55C5.62,0,0,10.47,0,23.37S5.62,46.73,12.55,46.73Z" style="fill: rgb(23, 23, 22);"/>
      <path class="cls-1" d="M401.54,183.91a38.92,38.92,0,0,0-1.37-8l0-.13c0-.11-.07-.22-.1-.34-.17-.54-.34-1.07-.53-1.58s-.45-1.19-.7-1.75l0-.05c0-.12-.11-.24-.16-.35-2.1-4.55-5.12-7.57-8.51-8.08a6.87,6.87,0,0,0-1-.08H12.55C5.62,163.56,0,174,0,186.93s5.62,23.36,12.55,23.36H389.1c6.93,0,12.55-10.47,12.55-23.36,0-.46,0-.91,0-1.36S401.58,184.46,401.54,183.91Z" style="fill: rgb(23, 23, 22);"/>
    </g>
  </g>
</svg>